<svg width="566" height="566" viewBox="0 0 566 566" fill="none" xmlns="http://www.w3.org/2000/svg">
<path d="M424.264 141.421L282.843 0V141.421H424.264Z" fill="#3719D3"/>
<path d="M141.421 141.421L282.843 282.843L282.843 141.421L141.421 141.421Z" fill="#3719D3"/>
<path d="M141.421 424.264L282.843 565.686L282.843 424.264L141.421 424.264Z" fill="#3719D3"/>
<path d="M424.264 424.264L282.843 282.843L282.843 424.264L424.264 424.264Z" fill="#3719D3"/>
<path d="M424.264 424.264L565.686 282.843L424.264 282.843L424.264 424.264Z" fill="#3719D3"/>
<path d="M424.264 141.421L282.843 282.843L424.264 282.843L424.264 141.421Z" fill="#3719D3"/>
<path d="M141.421 141.421L0 282.843L141.421 282.843L141.421 141.421Z" fill="#3719D3"/>
<path d="M141.421 424.264L282.843 282.843L141.421 282.843L141.421 424.264Z" fill="#3719D3"/>
</svg>
