<svg width="665" height="142" viewBox="0 0 665 142" fill="none" xmlns="http://www.w3.org/2000/svg">
<path d="M0 121.377H28.818C37.4696 121.377 41.4413 117.97 41.4413 108.242V87.8638C41.4413 57.4813 55.7271 41.6149 83.0365 41.6149C97.3223 41.6149 108.16 46.6786 114.595 56.4072C121.307 46.6786 131.621 41.6149 145.907 41.6149C173.216 41.6149 187.502 57.4813 187.502 87.8638V139.852H167.181V87.8638C167.181 69.1126 159.638 60.0899 145.907 60.0899C132.175 60.0899 124.632 69.1126 124.632 87.8638V139.852H104.311V87.8638C104.311 69.1126 96.7681 60.0899 83.0365 60.0899C69.3048 60.0899 61.7617 69.1126 61.7617 87.8638V108.242C61.7617 130.952 50.7702 139.852 28.818 139.852H0V121.377ZM229.251 0C236.394 0 242.305 5.89237 242.305 13.0123C242.305 20.1323 236.394 26.0246 229.251 26.0246C222.108 26.0246 216.197 20.1323 216.197 13.0123C216.197 5.89237 222.108 0 229.251 0ZM219.091 43.7938H239.411V139.852H219.091V43.7938ZM310.471 41.5842C320.477 41.5842 328.728 43.4869 336.703 47.0469L330.237 64.1409C322.263 61.1333 316.382 60.0285 310.471 60.0285C295.107 60.0285 285.224 70.9846 285.224 91.7614C285.224 112.538 295.107 123.494 310.471 123.494C316.782 123.494 322.694 122.267 331.345 118.829L338.334 135.923C329.56 139.882 319.677 141.939 310.471 141.939C282.453 141.939 264.627 123.187 264.627 91.7307C264.627 60.274 282.484 41.5228 310.471 41.5228V41.5842ZM396.186 41.5842C402.651 41.5842 409.363 42.9652 414.567 44.8679L408.532 62.2382C404.684 60.7344 400.712 60.0592 396.186 60.0592C384.394 60.0592 378.329 68.5295 378.329 85.1018C378.329 99.7406 378.606 115.607 378.883 139.821H358.562C358.285 115.607 358.008 99.7406 358.008 85.1018C358.008 55.5479 371.463 41.5842 396.155 41.5842H396.186ZM470.417 41.5842C499.235 41.5842 517.092 60.3354 517.092 91.7921C517.092 123.249 499.235 142 470.417 142C441.599 142 423.742 123.249 423.742 91.7921C423.742 60.3354 441.599 41.5842 470.417 41.5842ZM470.417 123.556C486.612 123.556 496.495 112.6 496.495 91.8228C496.495 71.046 486.612 60.0899 470.417 60.0899C454.222 60.0899 444.339 71.046 444.339 91.8228C444.339 112.6 454.222 123.556 470.417 123.556ZM581.286 41.5842C609.304 41.5842 623.559 57.4506 623.559 87.8332V108.211C623.559 117.939 627.53 121.346 636.182 121.346H665V139.821H636.182C614.23 139.821 603.238 130.921 603.238 108.211V87.8332C603.238 69.0819 595.695 60.0592 581.286 60.0592C566.877 60.0592 559.334 69.0819 559.334 87.8332V139.821H539.014V87.8332C539.014 57.4506 553.299 41.5842 581.286 41.5842Z" fill="white"/>
</svg>
