<svg width="451" height="172" viewBox="0 0 451 172" fill="none" xmlns="http://www.w3.org/2000/svg">
<path d="M128.937 42.9791L85.9583 0V42.9791H128.937Z" fill="white"/>
<path d="M42.9791 42.9791L85.9583 85.9583L85.9583 42.9791L42.9791 42.9791Z" fill="white"/>
<path d="M42.9791 128.937L85.9583 171.917L85.9583 128.937L42.9791 128.937Z" fill="white"/>
<path d="M128.937 128.938L85.9583 85.9584L85.9582 128.938L128.937 128.938Z" fill="white"/>
<path d="M128.937 128.937L171.917 85.9583L128.937 85.9582L128.937 128.937Z" fill="white"/>
<path d="M128.937 42.9791L85.9583 85.9583L128.937 85.9583L128.937 42.9791Z" fill="white"/>
<path d="M42.9791 42.9791L0 85.9583L42.9791 85.9583L42.9791 42.9791Z" fill="white"/>
<path d="M42.9791 128.937L85.9583 85.9583L42.9791 85.9582L42.9791 128.937Z" fill="white"/>
<path d="M450.919 75.3073V84.754H425.782V75.3073H450.919ZM428.981 23.075V84.754H417.846V23.075H428.981Z" fill="white"/>
<path d="M388.802 32.8182L374.966 84.754H363.249L382.32 23.075H389.633L388.802 32.8182ZM399.73 84.754L385.894 32.8182L384.938 23.075H392.334L411.488 84.754H399.73ZM400.104 61.7938V71.2406H372.348V61.7938H400.104Z" fill="white"/>
<path d="M349.288 23.075V84.754H338.236V23.075H349.288ZM364.537 23.075V32.564H323.236V23.075H364.537Z" fill="white"/>
<path d="M316.464 23.075V84.754H305.411V23.075H316.464Z" fill="white"/>
<path d="M295.315 52.7283V77.5948C294.511 78.5268 293.32 79.6282 291.741 80.8991C290.162 82.1417 288.071 83.2431 285.467 84.2033C282.891 85.1353 279.692 85.6012 275.869 85.6012C272.573 85.6012 269.567 85.0647 266.853 83.9915C264.166 82.9183 261.853 81.2944 259.914 79.1199C258.003 76.917 256.521 74.1776 255.468 70.9016C254.443 67.6256 253.931 63.7566 253.931 59.2944V48.5345C253.931 44.1006 254.402 40.2456 255.344 36.9696C256.313 33.6654 257.712 30.9119 259.54 28.7091C261.396 26.5062 263.626 24.8682 266.23 23.7951C268.833 22.7219 271.797 22.1853 275.121 22.1853C279.526 22.1853 283.154 22.9619 286.007 24.5152C288.888 26.0402 291.077 28.2996 292.572 31.2931C294.096 34.2867 295.01 37.9581 295.315 42.3073H284.512C284.29 39.7091 283.833 37.6333 283.14 36.08C282.448 34.5268 281.465 33.3971 280.19 32.6911C278.944 31.985 277.323 31.632 275.329 31.632C273.556 31.632 272.019 31.9568 270.717 32.6064C269.443 33.2277 268.376 34.2161 267.518 35.5717C266.687 36.9273 266.063 38.6641 265.648 40.7822C265.26 42.9003 265.066 45.4562 265.066 48.4498V59.2944C265.066 62.288 265.302 64.858 265.773 67.0043C266.271 69.1507 266.991 70.9016 267.933 72.2572C268.875 73.6128 270.052 74.6012 271.465 75.2225C272.878 75.8439 274.526 76.1545 276.409 76.1545C278.071 76.1545 279.401 75.9851 280.398 75.6462C281.395 75.3073 282.185 74.926 282.767 74.5024C283.376 74.0505 283.861 73.7116 284.221 73.4857V61.4549H274.997V52.7283H295.315Z" fill="white"/>
<path d="M243.917 23.075V84.754H232.865V23.075H243.917Z" fill="white"/>
<path d="M199.5 84.754H188.905L188.988 75.3073H199.5C202.575 75.3073 204.999 74.7425 206.772 73.6128C208.572 72.4549 209.846 70.6616 210.594 68.2329C211.37 65.8041 211.758 62.6693 211.758 58.8285V48.9581C211.758 46.021 211.55 43.5217 211.134 41.4601C210.719 39.3702 210.04 37.6757 209.098 36.3766C208.157 35.0775 206.924 34.1173 205.4 33.496C203.877 32.8747 201.993 32.564 199.75 32.564H188.697V23.075H199.75C203.24 23.075 206.398 23.6539 209.223 24.8118C212.048 25.9414 214.472 27.6077 216.494 29.8105C218.544 32.0133 220.109 34.7386 221.189 37.9864C222.27 41.2059 222.81 44.8914 222.81 49.0429V58.8285C222.81 62.98 222.27 66.6655 221.189 69.885C220.109 73.1045 218.544 75.8157 216.494 78.0185C214.472 80.2213 212.021 81.9017 209.14 83.0596C206.287 84.1892 203.074 84.754 199.5 84.754ZM195.304 23.075V84.754H184.168V23.075H195.304Z" fill="white"/>
<path d="M420.244 91.7803L429.778 118.627L439.272 91.7803H451L435.163 128.64V149.862H424.393V128.64L408.556 91.7803H420.244Z" fill="white"/>
<path d="M390.365 91.7803V149.862H379.754V91.7803H390.365ZM405.006 91.7803V100.716H365.354V91.7803H405.006Z" fill="white"/>
<path d="M358.852 91.7803V149.862H348.241V91.7803H358.852Z" fill="white"/>
<path d="M337.59 91.7803V149.862H327.178L307.791 111.606V149.862H297.579V91.7803H307.831L327.377 130.395V91.7803H337.59Z" fill="white"/>
<path d="M286.968 91.7803V149.862H276.357V91.7803H286.968Z" fill="white"/>
<path d="M231.08 91.7803H249.151C253.007 91.7803 256.292 92.4451 259.004 93.7748C261.717 95.1045 263.778 97.0725 265.187 99.6787C266.623 102.285 267.341 105.49 267.341 109.292C267.341 112.324 266.903 114.957 266.025 117.191C265.174 119.398 263.951 121.246 262.355 122.736C260.786 124.225 258.884 125.382 256.651 126.206L253.419 128.041H238.46L238.42 119.146H248.912C250.64 119.146 252.076 118.76 253.22 117.989C254.39 117.217 255.254 116.154 255.813 114.797C256.398 113.415 256.69 111.832 256.69 110.05C256.69 108.109 256.425 106.447 255.893 105.064C255.387 103.655 254.576 102.577 253.459 101.833C252.369 101.088 250.933 100.716 249.151 100.716H241.771V149.862H231.08V91.7803ZM257.807 149.862L246.917 123.853H258.127L269.216 149.303V149.862H257.807Z" fill="white"/>
<path d="M209.18 91.7803V149.862H198.569V91.7803H209.18ZM223.82 91.7803V100.716H184.168V91.7803H223.82Z" fill="white"/>
</svg>
