<svg width="1484" height="566" viewBox="0 0 1484 566" fill="none" xmlns="http://www.w3.org/2000/svg">
<path d="M424.264 141.421L282.843 0V141.421H424.264Z" fill="#3719D3"/>
<path d="M141.421 141.421L282.843 282.843L282.843 141.421L141.421 141.421Z" fill="#3719D3"/>
<path d="M141.421 424.264L282.843 565.686L282.843 424.264L141.421 424.264Z" fill="#3719D3"/>
<path d="M424.264 424.264L282.843 282.843L282.843 424.264L424.264 424.264Z" fill="#3719D3"/>
<path d="M424.264 424.264L565.686 282.843L424.264 282.843L424.264 424.264Z" fill="#3719D3"/>
<path d="M424.264 141.421L282.843 282.843L424.264 282.843L424.264 141.421Z" fill="#3719D3"/>
<path d="M141.421 141.421L0 282.843L141.421 282.843L141.421 141.421Z" fill="#3719D3"/>
<path d="M141.421 424.264L282.843 282.843L141.421 282.843L141.421 424.264Z" fill="#3719D3"/>
<path d="M1483.73 247.796V278.88H1401.02V247.796H1483.73ZM1411.55 75.9272V278.88H1374.91V75.9272H1411.55Z" fill="#3719D3"/>
<path d="M1279.34 107.987L1233.81 278.88H1195.26L1258.01 75.9272H1282.07L1279.34 107.987ZM1315.3 278.88L1269.77 107.987L1266.62 75.9272H1290.96L1353.99 278.88H1315.3ZM1316.53 203.33V234.415H1225.2V203.33H1316.53Z" fill="#3719D3"/>
<path d="M1149.32 75.9272V278.88H1112.95V75.9272H1149.32ZM1199.5 75.9272V107.151H1063.6V75.9272H1199.5Z" fill="#3719D3"/>
<path d="M1041.31 75.9272V278.88H1004.95V75.9272H1041.31Z" fill="#3719D3"/>
<path d="M971.723 173.501V255.323C969.079 258.39 965.16 262.014 959.965 266.196C954.77 270.284 947.888 273.909 939.32 277.068C930.844 280.135 920.316 281.668 907.738 281.668C896.892 281.668 887.003 279.902 878.07 276.371C869.229 272.84 861.618 267.497 855.238 260.341C848.949 253.093 844.073 244.079 840.609 233.299C837.237 222.52 835.551 209.789 835.551 195.106V159.701C835.551 145.111 837.1 132.427 840.199 121.647C843.389 110.775 847.992 101.714 854.008 94.4662C860.115 87.2179 867.452 81.8281 876.02 78.2968C884.587 74.7656 894.34 73 905.277 73C919.77 73 931.71 75.5555 941.098 80.6665C950.577 85.6846 957.777 93.1187 962.699 102.969C967.712 112.819 970.72 124.9 971.723 139.211H936.176C935.447 130.661 933.943 123.831 931.664 118.72C929.385 113.609 926.15 109.892 921.957 107.569C917.855 105.246 912.523 104.084 905.961 104.084C900.128 104.084 895.069 105.153 890.785 107.29C886.592 109.335 883.083 112.587 880.258 117.047C877.523 121.508 875.473 127.223 874.105 134.193C872.829 141.162 872.191 149.572 872.191 159.422V195.106C872.191 204.957 872.966 213.413 874.516 220.475C876.156 227.538 878.526 233.299 881.625 237.76C884.724 242.22 888.598 245.473 893.246 247.517C897.895 249.562 903.318 250.584 909.516 250.584C914.984 250.584 919.359 250.026 922.641 248.911C925.922 247.796 928.52 246.542 930.434 245.148C932.439 243.661 934.034 242.546 935.219 241.802V202.215H904.867V173.501H971.723Z" fill="#3719D3"/>
<path d="M802.602 75.9272V278.88H766.234V75.9272H802.602Z" fill="#3719D3"/>
<path d="M656.449 278.88H621.586L621.859 247.796H656.449C666.566 247.796 674.542 245.938 680.375 242.22C686.299 238.41 690.492 232.51 692.953 224.518C695.505 216.526 696.781 206.211 696.781 193.573V161.095C696.781 151.431 696.098 143.207 694.73 136.423C693.363 129.546 691.13 123.971 688.031 119.696C684.932 115.421 680.876 112.262 675.863 110.217C670.85 108.173 664.652 107.151 657.27 107.151H620.902V75.9272H657.27C668.754 75.9272 679.145 77.8323 688.441 81.6423C697.738 85.3594 705.714 90.8421 712.367 98.0904C719.112 105.339 724.262 114.306 727.816 124.993C731.371 135.586 733.148 147.713 733.148 161.374V193.573C733.148 207.233 731.371 219.36 727.816 229.954C724.262 240.548 719.112 249.469 712.367 256.717C705.714 263.965 697.647 269.495 688.168 273.305C678.78 277.022 668.207 278.88 656.449 278.88ZM642.641 75.9272V278.88H606V75.9272H642.641Z" fill="#3719D3"/>
<path d="M1382.8 302L1414.17 390.338L1445.41 302H1484L1431.89 423.284V493.115H1396.45V423.284L1344.34 302H1382.8Z" fill="#3719D3"/>
<path d="M1284.48 302V493.115H1249.57V302H1284.48ZM1332.66 302V331.402H1202.18V302H1332.66Z" fill="#3719D3"/>
<path d="M1180.79 302V493.115H1145.87V302H1180.79Z" fill="#3719D3"/>
<path d="M1110.83 302V493.115H1076.57L1012.78 367.236V493.115H979.173V302H1012.91L1077.22 429.06V302H1110.83Z" fill="#3719D3"/>
<path d="M944.258 302V493.115H909.343V302H944.258Z" fill="#3719D3"/>
<path d="M760.362 302H819.823C832.512 302 843.319 304.188 852.244 308.563C861.17 312.938 867.952 319.414 872.59 327.99C877.315 336.565 879.678 347.11 879.678 359.623C879.678 369.599 878.234 378.262 875.346 385.613C872.546 392.876 868.521 398.958 863.27 403.858C858.107 408.758 851.851 412.565 844.5 415.278L833.868 421.316H784.645L784.514 392.045H819.036C824.724 392.045 829.449 390.776 833.212 388.238C837.062 385.7 839.906 382.2 841.744 377.737C843.669 373.187 844.631 367.98 844.631 362.117C844.631 355.729 843.756 350.26 842.006 345.71C840.344 341.072 837.675 337.528 833.999 335.078C830.412 332.627 825.686 331.402 819.823 331.402H795.54V493.115H760.362V302ZM848.307 493.115L812.473 407.533H849.357L885.847 491.277V493.115H848.307Z" fill="#3719D3"/>
<path d="M688.3 302V493.115H653.385V302H688.3ZM736.473 302V331.402H606V302H736.473Z" fill="#3719D3"/>
</svg>
